# xmcd CD database file
# Copyright (C) 1997 Ti Kan
# 
# Track frame offsets:
#     150
#     12430
#     29472
#     42242
#     56432
#     71700
# 
# Disc length: 1095 seconds
# 
# Revision: 1
# Processed by: cddbd v1.4b41PL1 Copyright (c) Steve Scherf et al.
# Submitted via: DiscPlay 4.0.3
# 
DISCID=4c044506
DTITLE=Scotty Campbell - Pitchin' Woe
DYEAR=1900
DGENRE=
TTITLE0=Hillbilly Boy
TTITLE1=It Tears Me Up
TTITLE2=Lonesome Number One
TTITLE3=Things Are Lookin' Up
TTITLE4=Art Of Fallin' Apart, The
TTITLE5=Shoe's On The Other Foot, The
EXTD=
EXTT0=
EXTT1=
EXTT2=
EXTT3=
EXTT4=
EXTT5=
PLAYORDER=
